<svg width="458" height="6" viewBox="0 0 458 6" fill="none" xmlns="http://www.w3.org/2000/svg">
<path d="M1 5L5 1L9 5L13 1L17 5L21 1L25 5L29 1L33 5L37 1L41 5L45 1L49 5L53 1L57 5L61 1L65 5L69 1L73 5L77 1L81 5L85 1L89 5L93 1L97 5L101 1L105 5L109 1L113 5L117 1L121 5L125 1L129 5L133 1L137 5L141 1L145 5L149 1L153 5L157 1L161 5L165 1L169 5L173 1L177 5L181 1L185 5L189 1L193 5L197 1L201 5" stroke="#D8D8D8"/>
<path d="M201 5L205 1L209 5L213 1L217 5L221 1L225 5L229 1L233 5L237 1L241 5L245 1L249 5L253 1L257 5L261 1L265 5L269 1L273 5L277 1L281 5L285 1L289 5L293 1L297 5L301 1L305 5L309 1L313 5L317 1L321 5L325 1L329 5L333 1L337 5L341 1L345 5L349 1L353 5L357 1L361 5L365 1L369 5L373 1L377 5L381 1L385 5L389 1L393 5L397 1L401 5" stroke="#D8D8D8"/>
<path d="M401 5L405 1L409 5L413 1L417 5L421 1L425 5L429 1L433 5L437 1L441 5L445 1L449 5L453 1L457 5L461 1L465 5L469 1L473 5L477 1L481 5L485 1L489 5L493 1L497 5L501 1L505 5L509 1L513 5L517 1L521 5L525 1L529 5L533 1L537 5L541 1L545 5L549 1L553 5L557 1L561 5L565 1L569 5L573 1L577 5L581 1L585 5L589 1L593 5L597 1L601 5" stroke="#D8D8D8"/>
</svg>
