<svg width="79" height="55" viewBox="0 0 79 55" fill="none" xmlns="http://www.w3.org/2000/svg">
<path d="M19.6177 50.5339C12.8177 53.3339 6.45101 53.7006 4.11768 53.5339C8.11768 56.5339 18.6177 54.0339 28.1177 50.5339C35.7177 47.7339 44.2843 42.7006 47.6177 40.5339L50.1177 46.5339H65.1177L59.6177 33.0339C62.1177 31.2006 67.6177 27.0339 69.6177 25.0339C72.1177 22.5339 75.6177 19.0339 77.6177 15.0339C79.2177 11.8339 78.951 10.7006 78.6177 10.5339C78.6177 10.7006 78.2177 11.6339 76.6177 14.0339C74.6177 17.0339 69.1177 21.5339 63.1177 26.5339C57.1177 31.5339 51.1177 35.0339 44.1177 39.0339C37.1177 43.0339 28.1177 47.0339 19.6177 50.5339Z" fill="#D2D2D2"/>
<path d="M14.1177 43.5339L31.1177 0.0339355L32.1177 1.53394L39.6177 18.5339L32.1177 37.0339L29.6177 39.0339L14.1177 43.5339Z" fill="#D2D2D2"/>
<path d="M31.1176 0.0339505H47.1176L55.6176 22.034C59.2843 19.534 67.1176 13.534 69.1176 9.53395C71.6176 4.53395 71.6176 2.53395 67.6176 1.53395C64.4176 0.733951 56.6176 3.20062 53.1176 4.53395C56.1176 2.86728 63.7176 -0.366049 70.1176 0.0339505C76.5176 0.433951 76.7843 3.53394 76.1176 5.03394C75.7843 6.53394 73.7176 10.8339 68.1176 16.0339C61.1176 22.5339 49.1176 30.5339 43.1176 34.0339C37.1176 37.5339 28.6176 43.0339 12.6176 46.5339C-3.38236 50.0339 -0.38236 42.5339 1.61764 39.5339C2.4706 38.2545 3.7404 36.8235 4.9422 35.5893C5.81276 34.4879 6.82637 33.5933 7.61768 33.0339C6.99514 33.5787 5.99475 34.5085 4.9422 35.5893C3.42908 37.5037 2.34811 40.0431 3.61768 42.5339C6.11768 47.4388 24.6177 40.5339 29.6177 38.0339C33.6177 36.0339 40.6177 32.2006 43.6177 30.5339L31.1176 0.0339505Z" fill="#FDFCFD"/>
</svg>
